<svg xmlns="http://www.w3.org/2000/svg" xmlns:xlink="http://www.w3.org/1999/xlink" contentStyleType="text/css" height="626px" preserveAspectRatio="none" style="width:1023px;height:626px;background:#FFFFFF;" version="1.1" viewBox="0 0 1023 626" width="1023px" zoomAndPan="magnify"><defs/><g><!--cluster Chess--><g id="cluster_Chess"><path d="M110,6 L157.4023,6 A3.75,3.75 0 0 1 159.9023,8.5 L166.9023,28.2969 L1014,28.2969 A2.5,2.5 0 0 1 1016.5,30.7969 L1016.5,525.5 A2.5,2.5 0 0 1 1014,528 L110,528 A2.5,2.5 0 0 1 107.5,525.5 L107.5,8.5 A2.5,2.5 0 0 1 110,6 " fill="none" style="stroke:#000000;stroke-width:1.5;"/><line style="stroke:#000000;stroke-width:1.5;" x1="107.5" x2="166.9023" y1="28.2969" y2="28.2969"/><text fill="#000000" font-family="sans-serif" font-size="14" font-weight="bold" lengthAdjust="spacing" textLength="46.4023" x="111.5" y="20.9951">Chess</text></g><g id="elem_F11"><ellipse cx="227.8491" cy="276.7698" fill="#F1F1F1" rx="104.3491" ry="23.2698" style="stroke:#181818;stroke-width:0.5;"/><text fill="#000000" font-family="sans-serif" font-size="14" lengthAdjust="spacing" textLength="173.5986" x="141.0498" y="279.6165">F11. Gestion des options</text></g><g id="elem_F16"><ellipse cx="542.0847" cy="417.0169" fill="#F1F1F1" rx="78.0847" ry="18.0169" style="stroke:#181818;stroke-width:0.5;"/><text fill="#000000" font-family="sans-serif" font-size="14" lengthAdjust="spacing" textLength="113.8252" x="482.7542" y="420.6103">F16. Aide en CLI</text></g><g id="elem_F17"><ellipse cx="542.0012" cy="348.0002" fill="#F1F1F1" rx="68.0012" ry="16.0002" style="stroke:#181818;stroke-width:0.5;"/><text fill="#000000" font-family="sans-serif" font-size="14" lengthAdjust="spacing" textLength="87.3359" x="495.3332" y="351.7478">F17. Version</text></g><g id="elem_F18"><ellipse cx="541.8275" cy="277.1655" fill="#F1F1F1" rx="86.3275" ry="19.6655" style="stroke:#181818;stroke-width:0.5;"/><text fill="#000000" font-family="sans-serif" font-size="14" lengthAdjust="spacing" textLength="133.376" x="475.1395" y="280.0122">F18. Mode verbose</text></g><g id="elem_F19"><ellipse cx="542.2397" cy="204.1479" fill="#F1F1F1" rx="81.2397" ry="18.6479" style="stroke:#181818;stroke-width:0.5;"/><text fill="#000000" font-family="sans-serif" font-size="14" lengthAdjust="spacing" textLength="121.5088" x="480.2768" y="207.3907">F19. Mode debug</text></g><g id="elem_F20"><ellipse cx="542.1126" cy="133.0225" fill="#F1F1F1" rx="75.6126" ry="17.5225" style="stroke:#181818;stroke-width:0.5;"/><text fill="#000000" font-family="sans-serif" font-size="14" lengthAdjust="spacing" textLength="107.584" x="485.3206" y="136.7701">F20. Mode Blitz</text></g><g id="elem_F21"><ellipse cx="876.911" cy="61.1822" fill="#F1F1F1" rx="86.411" ry="19.6822" style="stroke:#181818;stroke-width:0.5;"/><text fill="#000000" font-family="sans-serif" font-size="14" lengthAdjust="spacing" textLength="133.5674" x="810.1273" y="64.0289">F21. Dur&#233;e du blitz</text></g><g id="elem_F22"><ellipse cx="542.0922" cy="60.8184" fill="#F1F1F1" rx="84.5922" ry="19.3184" style="stroke:#181818;stroke-width:0.5;"/><text fill="#000000" font-family="sans-serif" font-size="14" lengthAdjust="spacing" textLength="129.3838" x="477.3326" y="63.6886">F22. Mode contest</text></g><g id="elem_F23"><ellipse cx="541.8537" cy="486.7707" fill="#F1F1F1" rx="69.3537" ry="16.2707" style="stroke:#181818;stroke-width:0.5;"/><text fill="#000000" font-family="sans-serif" font-size="14" lengthAdjust="spacing" textLength="91.0684" x="493.3196" y="490.5183">F23. Mode IA</text></g><g id="elem_F55"><ellipse cx="877.0857" cy="489.0171" fill="#F1F1F1" rx="100.5857" ry="22.5171" style="stroke:#181818;stroke-width:0.5;"/><text fill="#000000" font-family="sans-serif" font-size="14" lengthAdjust="spacing" textLength="165.3477" x="794.4119" y="491.8638">F55. AlphaBeta pruning</text></g><g id="elem_F56"><ellipse cx="876.8325" cy="405.0665" fill="#F1F1F1" rx="118.3325" ry="26.0665" style="stroke:#181818;stroke-width:0.5;"/><text fill="#000000" font-family="sans-serif" font-size="14" lengthAdjust="spacing" textLength="203.793" x="774.936" y="407.9132">F56. MonteCarlo Tree Search</text></g><g id="elem_F57"><ellipse cx="877.2341" cy="317.0468" fill="#F1F1F1" rx="120.7341" ry="26.5468" style="stroke:#181818;stroke-width:0.5;"/><text fill="#000000" font-family="sans-serif" font-size="14" lengthAdjust="spacing" textLength="208.9199" x="772.7742" y="319.8935">F57. Profondeur de recherche</text></g><g id="elem_F58"><ellipse cx="876.856" cy="230.1712" fill="#F1F1F1" rx="113.856" ry="25.1712" style="stroke:#181818;stroke-width:0.5;"/><text fill="#000000" font-family="sans-serif" font-size="14" lengthAdjust="spacing" textLength="194.1953" x="779.7583" y="233.0179">F58. Choix des heuristiques</text></g><g id="elem_F60"><ellipse cx="876.9545" cy="143.0909" fill="#F1F1F1" rx="123.4545" ry="27.0909" style="stroke:#181818;stroke-width:0.5;"/><text fill="#000000" font-family="sans-serif" font-size="14" lengthAdjust="spacing" textLength="214.71" x="769.5995" y="145.9376">F60. Temps de r&#233;flexion born&#233;</text></g><!--entity User--><g id="elem_User"><ellipse cx="33" cy="255" fill="#F1F1F1" rx="16" ry="16" style="stroke:#181818;stroke-width:0.5;"/><path d="M33,275 C37,275 40,275 44,271 C52,271 60,279 60,287 L60,291 C60,295 56,299 52,299 L14,299 C10,299 6,295 6,291 L6,287 C6,279 14,271 22,271 C26,275 29,275 33,275 " fill="#F1F1F1" style="stroke:#181818;stroke-width:0.5;"/><text fill="#000000" font-family="sans-serif" font-size="14" lengthAdjust="spacing" textLength="31.9102" x="17.0449" y="312.4951">User</text></g><!--entity AI--><g id="elem_AI"><ellipse cx="228.2466" cy="561" fill="#F1F1F1" rx="16" ry="16" style="stroke:#181818;stroke-width:0.5;"/><path d="M228.2466,581 C232.2466,581 235.2466,581 239.2466,577 C247.2466,577 255.2466,585 255.2466,593 L255.2466,597 C255.2466,601 251.2466,605 247.2466,605 L209.2466,605 C205.2466,605 201.2466,601 201.2466,597 L201.2466,593 C201.2466,585 209.2466,577 217.2466,577 C221.2466,581 224.2466,581 228.2466,581 " fill="#F1F1F1" style="stroke:#181818;stroke-width:0.5;"/><text fill="#000000" font-family="sans-serif" font-size="14" lengthAdjust="spacing" textLength="143.4932" x="156.5" y="618.4951">Artificial Intelligence</text></g><!--link User to F11--><g id="link_User_F11"><path d="M60.84,277 C77.51,277 94.13,277 117.31,277 " fill="none" id="User-to-F11" style="stroke:#181818;stroke-width:1;"/><polygon fill="#181818" points="123.31,277,114.31,273,118.31,277,114.31,281,123.31,277" style="stroke:#181818;stroke-width:1;"/></g><!--reverse link F11 to F16--><g id="link_F11_F16"><path d="M273.7951,301.5604 C300.1051,315.7004 330.33,331.33 362.5,346 C408.63,367.03 462.9,388.12 499.39,401.78 " fill="none" id="F11-backto-F16" style="stroke:#181818;stroke-width:1;stroke-dasharray:7.0,7.0;"/><polygon fill="#181818" points="268.51,298.72,274.544,306.504,272.9142,301.087,278.3312,299.4572,268.51,298.72" style="stroke:#181818;stroke-width:1;"/><text fill="#000000" font-family="sans-serif" font-size="13" lengthAdjust="spacing" textLength="61.1851" x="363.5" y="342.0669">&#171;extend&#187;</text></g><!--reverse link F11 to F17--><g id="link_F11_F17"><path d="M308.0005,294.9811 C366.7205,308.3411 441.64,325.39 492.58,336.98 " fill="none" id="F11-backto-F17" style="stroke:#181818;stroke-width:1;stroke-dasharray:7.0,7.0;"/><polygon fill="#181818" points="302.15,293.65,310.0383,299.547,307.0254,294.7593,311.8131,291.7463,302.15,293.65" style="stroke:#181818;stroke-width:1;"/><text fill="#000000" font-family="sans-serif" font-size="13" lengthAdjust="spacing" textLength="61.1851" x="363.5" y="305.0669">&#171;extend&#187;</text></g><!--reverse link F11 to F18--><g id="link_F11_F18"><path d="M338.89,277 C378.69,277 417.6,277 455.48,277 " fill="none" id="F11-backto-F18" style="stroke:#181818;stroke-width:1;stroke-dasharray:7.0,7.0;"/><polygon fill="#181818" points="332.89,277,341.89,281,337.89,277,341.89,273,332.89,277" style="stroke:#181818;stroke-width:1;"/><text fill="#000000" font-family="sans-serif" font-size="13" lengthAdjust="spacing" textLength="61.1851" x="363.5" y="273.0669">&#171;extend&#187;</text></g><!--reverse link F11 to F19--><g id="link_F11_F19"><path d="M306.8123,258.7934 C362.6023,245.7434 432.98,229.27 484.45,217.23 " fill="none" id="F11-backto-F19" style="stroke:#181818;stroke-width:1;stroke-dasharray:7.0,7.0;"/><polygon fill="#181818" points="300.97,260.16,310.6445,262.005,305.8386,259.0212,308.8224,254.2153,300.97,260.16" style="stroke:#181818;stroke-width:1;"/><text fill="#000000" font-family="sans-serif" font-size="13" lengthAdjust="spacing" textLength="61.1851" x="363.5" y="228.0669">&#171;extend&#187;</text></g><!--reverse link F11 to F23--><g id="link_F11_F23"><path d="M256.17,304.3951 C281.84,329.7351 321.05,366.58 362.5,397 C401.21,425.41 412.5,430.63 455.5,452 C471.01,459.71 488.65,467.14 503.87,473.16 " fill="none" id="F11-backto-F23" style="stroke:#181818;stroke-width:1;stroke-dasharray:7.0,7.0;"/><polygon fill="#181818" points="251.9,300.18,255.4949,309.3493,255.4583,303.6926,261.1151,303.656,251.9,300.18" style="stroke:#181818;stroke-width:1;"/><text fill="#000000" font-family="sans-serif" font-size="13" lengthAdjust="spacing" textLength="61.1851" x="363.5" y="393.0669">&#171;extend&#187;</text></g><!--reverse link F11 to F22--><g id="link_F11_F22"><path d="M256.2707,249.5856 C282.0307,224.1656 321.32,187.11 362.5,156 C401.37,126.64 412.36,120.63 455.5,98 C469.25,90.79 484.71,83.78 498.67,77.84 " fill="none" id="F11-backto-F22" style="stroke:#181818;stroke-width:1;stroke-dasharray:7.0,7.0;"/><polygon fill="#181818" points="252,253.8,261.2157,250.3256,255.5589,250.288,255.5965,244.6313,252,253.8" style="stroke:#181818;stroke-width:1;"/><text fill="#000000" font-family="sans-serif" font-size="13" lengthAdjust="spacing" textLength="61.1851" x="363.5" y="111.0669">&#171;extend&#187;</text></g><!--reverse link F11 to F20--><g id="link_F11_F20"><path d="M273.5439,252.409 C299.9039,238.109 330.3,222.16 362.5,207 C403.05,187.91 414.09,185.16 455.5,168 C471.21,161.49 488.57,154.37 503.51,148.26 " fill="none" id="F11-backto-F20" style="stroke:#181818;stroke-width:1;stroke-dasharray:7.0,7.0;"/><polygon fill="#181818" points="268.27,255.27,278.0883,254.4944,272.6649,252.8858,274.2735,247.4625,268.27,255.27" style="stroke:#181818;stroke-width:1;"/><text fill="#000000" font-family="sans-serif" font-size="13" lengthAdjust="spacing" textLength="61.1851" x="363.5" y="177.0669">&#171;extend&#187;</text></g><!--link AI to F23--><g id="link_AI_F23"><path d="M299.8,561.22 C361.11,542.35 442.0053,517.4544 493.0353,501.7544 " fill="none" id="AI-to-F23" style="stroke:#181818;stroke-width:1;"/><polygon fill="#181818" points="498.77,499.99,488.9917,498.8134,493.9911,501.4603,491.3442,506.4597,498.77,499.99" style="stroke:#181818;stroke-width:1;"/></g><!--link F20 to F21--><g id="link_F20_F21"><path d="M597.99,121.11 C657.38,108.27 745.9354,89.1176 807.9754,75.7076 " fill="none" id="F20-to-F21" style="stroke:#181818;stroke-width:1;"/><polygon fill="#181818" points="813.84,74.44,804.1981,72.4317,808.9529,75.4964,805.8882,80.2512,813.84,74.44" style="stroke:#181818;stroke-width:1;"/><text fill="#000000" font-family="sans-serif" font-size="13" lengthAdjust="spacing" textLength="63.0068" x="659.5" y="91.0669">&#171;include&#187;</text></g><!--reverse link F23 to F57--><g id="link_F23_F57"><path d="M590.9517,471.7803 C605.3617,466.2503 615.49,461.11 628.5,452 C644.74,440.63 643.22,431.63 658.5,419 C696.64,387.49 708.88,382.36 753.5,361 C770.62,352.8 789.7,345.25 807.6,338.8 " fill="none" id="F23-backto-F57" style="stroke:#181818;stroke-width:1;stroke-dasharray:7.0,7.0;"/><polygon fill="#181818" points="585.35,473.93,595.1857,474.4399,590.0181,472.1386,592.3194,466.971,585.35,473.93" style="stroke:#181818;stroke-width:1;"/><text fill="#000000" font-family="sans-serif" font-size="13" lengthAdjust="spacing" textLength="61.1851" x="660.5" y="373.0669">&#171;extend&#187;</text></g><!--reverse link F23 to F58--><g id="link_F23_F58"><path d="M597.5771,473.2328 C610.9371,468.0028 618.8,462.69 628.5,452 C659.68,417.64 632.91,390.7 658.5,352 C688.79,306.2 705.73,300.08 753.5,273 C769.78,263.78 788.37,256.01 806.08,249.73 " fill="none" id="F23-backto-F58" style="stroke:#181818;stroke-width:1;stroke-dasharray:7.0,7.0;"/><polygon fill="#181818" points="591.99,475.42,601.8288,475.864,596.646,473.5973,598.9126,468.4145,591.99,475.42" style="stroke:#181818;stroke-width:1;"/><text fill="#000000" font-family="sans-serif" font-size="13" lengthAdjust="spacing" textLength="61.1851" x="660.5" y="287.0669">&#171;extend&#187;</text></g><!--reverse link F23 to F60--><g id="link_F23_F60"><path d="M599.3741,473.6297 C612.4541,468.4197 619.72,463.05 628.5,452 C680.57,386.42 617,338.73 658.5,266 C685.71,218.3 705.82,214.25 753.5,187 C768.7,178.31 785.93,170.85 802.56,164.67 " fill="none" id="F23-backto-F60" style="stroke:#181818;stroke-width:1;stroke-dasharray:7.0,7.0;"/><polygon fill="#181818" points="593.8,475.85,603.6413,476.2357,598.4451,473.9998,600.681,468.8036,593.8,475.85" style="stroke:#181818;stroke-width:1;"/><text fill="#000000" font-family="sans-serif" font-size="13" lengthAdjust="spacing" textLength="61.1851" x="660.5" y="200.0669">&#171;extend&#187;</text></g><!--reverse link F23 to F55--><g id="link_F23_F55"><path d="M617.5899,487.4466 C665.0999,487.7366 723.09,488.08 776.22,488.4 " fill="none" id="F23-backto-F55" style="stroke:#181818;stroke-width:1;stroke-dasharray:7.0,7.0;"/><polygon fill="#181818" points="611.59,487.41,620.5654,491.4649,616.5899,487.4405,620.6142,483.465,611.59,487.41" style="stroke:#181818;stroke-width:1;"/><text fill="#000000" font-family="sans-serif" font-size="13" lengthAdjust="spacing" textLength="61.1851" x="660.5" y="484.0669">&#171;extend&#187;</text></g><!--reverse link F23 to F56--><g id="link_F23_F56"><path d="M596.896,473.7256 C650.836,460.4456 733.34,440.13 797.37,424.36 " fill="none" id="F23-backto-F56" style="stroke:#181818;stroke-width:1;stroke-dasharray:7.0,7.0;"/><polygon fill="#181818" points="591.07,475.16,600.7653,476.8925,595.925,473.9647,598.8528,469.1244,591.07,475.16" style="stroke:#181818;stroke-width:1;"/><text fill="#000000" font-family="sans-serif" font-size="13" lengthAdjust="spacing" textLength="61.1851" x="660.5" y="440.0669">&#171;extend&#187;</text></g><!--SRC=[TPBTYjim48NlzHH3xjTu7UGa9GIyAIs65WgxxRrYZssnYkHASfksz87o77cnZhoYQ4jz8mJdcxypex3pu0rOsGyUMccnyT9evfwb7eKLPn2DD_RH_r08uZiwSqQs-kpGha0u21-sggoNdMoaK51hZqh97dM3Cr7LR1JDi-WHZWCwzujD3XlX45RlxkypU8yk58GM7PWnVDqSHs9AbXbKiaL03SSFTIJAbDXay0MjemHHtQJgDeEFXkA_eJqPXn7PfiWk8YsUfZu2kmGeU3QFPplH8FHMZ8FyEiLKHPwIUKpreAJ_-J-01dyxsTkLgarmIgXqwAA8QHf3PPsFI94YwuZKLLJNYSgfuqgDWtX0Bs2qavOwJiPvofKX2zKu2giCF5b4U4HXco72gT6SZFvaJMTqYvCbju1kPa22enKyDPwJySV1oCkyu84Y9EsRR8jRvkaAIlBj2S-ZcxFUhft2IxYDax7wTdq9A7Fscx5mTt1tTmXNmkY1VPQ5Wu0tiD_ZnQDk3uT4s2m9soLXjo0KwoMXM1BormAhwhbrMXKB8lt3ucT8waPDBGOgL9hZ-R_D_nMs2qAPBqNm9U6rSty0]--></g></svg>