<svg xmlns="http://www.w3.org/2000/svg" xmlns:xlink="http://www.w3.org/1999/xlink" contentStyleType="text/css" height="667px" preserveAspectRatio="none" style="width:1180px;height:667px;background:#FFFFFF;" version="1.1" viewBox="0 0 1180 667" width="1180px" zoomAndPan="magnify"><defs/><g><!--cluster Chess--><g id="cluster_Chess"><path d="M198.5,6 L245.9023,6 A3.75,3.75 0 0 1 248.4023,8.5 L255.4023,28.2969 L1170.5,28.2969 A2.5,2.5 0 0 1 1173,30.7969 L1173,657.5 A2.5,2.5 0 0 1 1170.5,660 L198.5,660 A2.5,2.5 0 0 1 196,657.5 L196,8.5 A2.5,2.5 0 0 1 198.5,6 " fill="none" style="stroke:#000000;stroke-width:1.5;"/><line style="stroke:#000000;stroke-width:1.5;" x1="196" x2="255.4023" y1="28.2969" y2="28.2969"/><text fill="#000000" font-family="sans-serif" font-size="14" font-weight="bold" lengthAdjust="spacing" textLength="46.4023" x="200" y="20.9951">Chess</text></g><g id="elem_F23"><ellipse cx="281.3537" cy="333.7707" fill="#F1F1F1" rx="69.3537" ry="16.2707" style="stroke:#181818;stroke-width:0.5;"/><text fill="#000000" font-family="sans-serif" font-size="14" lengthAdjust="spacing" textLength="91.0684" x="232.8196" y="337.5183">F23. Mode IA</text></g><g id="elem_F53"><ellipse cx="632.5063" cy="610.1013" fill="#F1F1F1" rx="158.5063" ry="34.1013" style="stroke:#181818;stroke-width:0.5;"/><text fill="#000000" font-family="sans-serif" font-size="14" lengthAdjust="spacing" textLength="288.1484" x="488.432" y="612.9479">F53. Heuristique d'&#233;valuation de position</text></g><g id="elem_F54"><ellipse cx="632.4799" cy="508.096" fill="#F1F1F1" rx="150.9799" ry="32.596" style="stroke:#181818;stroke-width:0.5;"/><text fill="#000000" font-family="sans-serif" font-size="14" lengthAdjust="spacing" textLength="272.5215" x="496.2191" y="510.9427">F54. Algorithme de recherche Minimax</text></g><g id="elem_F55"><ellipse cx="632.5857" cy="418.0171" fill="#F1F1F1" rx="100.5857" ry="22.5171" style="stroke:#181818;stroke-width:0.5;"/><text fill="#000000" font-family="sans-serif" font-size="14" lengthAdjust="spacing" textLength="165.3477" x="549.9119" y="420.8638">F55. AlphaBeta pruning</text></g><g id="elem_F56"><ellipse cx="632.3325" cy="334.0665" fill="#F1F1F1" rx="118.3325" ry="26.0665" style="stroke:#181818;stroke-width:0.5;"/><text fill="#000000" font-family="sans-serif" font-size="14" lengthAdjust="spacing" textLength="203.793" x="530.436" y="336.9132">F56. MonteCarlo Tree Search</text></g><g id="elem_F57"><ellipse cx="1036.7341" cy="418.0468" fill="#F1F1F1" rx="120.7341" ry="26.5468" style="stroke:#181818;stroke-width:0.5;"/><text fill="#000000" font-family="sans-serif" font-size="14" lengthAdjust="spacing" textLength="208.9199" x="932.2742" y="420.8935">F57. Profondeur de recherche</text></g><g id="elem_F58"><ellipse cx="632.356" cy="248.1712" fill="#F1F1F1" rx="113.856" ry="25.1712" style="stroke:#181818;stroke-width:0.5;"/><text fill="#000000" font-family="sans-serif" font-size="14" lengthAdjust="spacing" textLength="194.1953" x="535.2583" y="251.0179">F58. Choix des heuristiques</text></g><g id="elem_F59"><ellipse cx="632.339" cy="158.7678" fill="#F1F1F1" rx="129.339" ry="28.2678" style="stroke:#181818;stroke-width:0.5;"/><text fill="#000000" font-family="sans-serif" font-size="14" lengthAdjust="spacing" textLength="227.1787" x="518.7496" y="161.6145">F59. Heuristique de fin de partie</text></g><g id="elem_F60"><ellipse cx="632.4545" cy="68.0909" fill="#F1F1F1" rx="123.4545" ry="27.0909" style="stroke:#181818;stroke-width:0.5;"/><text fill="#000000" font-family="sans-serif" font-size="14" lengthAdjust="spacing" textLength="214.71" x="525.0995" y="70.9376">F60. Temps de r&#233;flexion born&#233;</text></g><!--entity User--><g id="elem_User"><ellipse cx="77.5" cy="256" fill="#F1F1F1" rx="16" ry="16" style="stroke:#181818;stroke-width:0.5;"/><path d="M77.5,276 C81.5,276 84.5,276 88.5,272 C96.5,272 104.5,280 104.5,288 L104.5,292 C104.5,296 100.5,300 96.5,300 L58.5,300 C54.5,300 50.5,296 50.5,292 L50.5,288 C50.5,280 58.5,272 66.5,272 C70.5,276 73.5,276 77.5,276 " fill="#F1F1F1" style="stroke:#181818;stroke-width:0.5;"/><text fill="#000000" font-family="sans-serif" font-size="14" lengthAdjust="spacing" textLength="31.9102" x="61.5449" y="313.4951">User</text></g><!--entity AI--><g id="elem_AI"><ellipse cx="77.7466" cy="368" fill="#F1F1F1" rx="16" ry="16" style="stroke:#181818;stroke-width:0.5;"/><path d="M77.7466,388 C81.7466,388 84.7466,388 88.7466,384 C96.7466,384 104.7466,392 104.7466,400 L104.7466,404 C104.7466,408 100.7466,412 96.7466,412 L58.7466,412 C54.7466,412 50.7466,408 50.7466,404 L50.7466,400 C50.7466,392 58.7466,384 66.7466,384 C70.7466,388 73.7466,388 77.7466,388 " fill="#F1F1F1" style="stroke:#181818;stroke-width:0.5;"/><text fill="#000000" font-family="sans-serif" font-size="14" lengthAdjust="spacing" textLength="143.4932" x="6" y="425.4951">Artificial Intelligence</text></g><!--link User to F23--><g id="link_User_F23"><path d="M105.32,285.44 C138.49,294.63 189.6384,308.8061 229.5784,319.8861 " fill="none" id="User-to-F23" style="stroke:#181818;stroke-width:1;"/><polygon fill="#181818" points="235.36,321.49,227.7568,315.2297,230.542,320.1534,225.6182,322.9385,235.36,321.49" style="stroke:#181818;stroke-width:1;"/></g><!--link AI to F23--><g id="link_AI_F23"><path d="M149.15,370.41 C177.82,362.47 204.3083,355.1237 229.6883,348.0837 " fill="none" id="AI-to-F23" style="stroke:#181818;stroke-width:1;"/><polygon fill="#181818" points="235.47,346.48,225.7283,345.0312,230.6519,347.8165,227.8666,352.7401,235.47,346.48" style="stroke:#181818;stroke-width:1;"/></g><!--reverse link F23 to F53--><g id="link_F23_F53"><path d="M294.3677,355.5803 C318.0677,397.4103 384.03,503.59 474,558 C491.12,568.36 510.56,576.92 529.79,583.91 " fill="none" id="F23-backto-F53" style="stroke:#181818;stroke-width:1;stroke-dasharray:7.0,7.0;"/><polygon fill="#181818" points="291.41,350.36,292.3664,360.1623,293.8748,354.7103,299.3268,356.2187,291.41,350.36" style="stroke:#181818;stroke-width:1;"/><text fill="#000000" font-family="sans-serif" font-size="13" lengthAdjust="spacing" textLength="61.1851" x="382" y="476.0669">&#171;extend&#187;</text></g><!--reverse link F23 to F54--><g id="link_F23_F54"><path d="M310.9062,352.9424 C330.8162,366.1824 355.2,382.3 381,399 C422.1,425.59 429.64,437.31 474,458 C494.02,467.34 516.25,475.58 537.54,482.54 " fill="none" id="F23-backto-F54" style="stroke:#181818;stroke-width:1;stroke-dasharray:7.0,7.0;"/><polygon fill="#181818" points="305.91,349.62,311.1893,357.9344,310.0735,352.3887,315.6192,351.2728,305.91,349.62" style="stroke:#181818;stroke-width:1;"/><text fill="#000000" font-family="sans-serif" font-size="13" lengthAdjust="spacing" textLength="61.1851" x="382" y="395.0669">&#171;extend&#187;</text></g><!--reverse link F23 to F58--><g id="link_F23_F58"><path d="M335.3849,320.4713 C351.6649,316.3313 364.22,313.17 381,309 C439.32,294.5 505.36,278.43 554.99,266.43 " fill="none" id="F23-backto-F58" style="stroke:#181818;stroke-width:1;stroke-dasharray:7.0,7.0;"/><polygon fill="#181818" points="329.57,321.95,339.2782,323.6085,334.4158,320.7177,337.3066,315.8553,329.57,321.95" style="stroke:#181818;stroke-width:1;"/><text fill="#000000" font-family="sans-serif" font-size="13" lengthAdjust="spacing" textLength="61.1851" x="382" y="290.0669">&#171;extend&#187;</text></g><!--reverse link F23 to F60--><g id="link_F23_F60"><path d="M294.1966,312.2866 C317.5866,270.2366 382.92,163.88 474,113 C494.48,101.56 518.12,92.82 540.75,86.23 " fill="none" id="F23-backto-F60" style="stroke:#181818;stroke-width:1;stroke-dasharray:7.0,7.0;"/><polygon fill="#181818" points="291.28,317.53,299.1505,311.6093,293.7105,313.1605,292.1593,307.7205,291.28,317.53" style="stroke:#181818;stroke-width:1;"/><text fill="#000000" font-family="sans-serif" font-size="13" lengthAdjust="spacing" textLength="61.1851" x="382" y="131.0669">&#171;extend&#187;</text></g><!--reverse link F23 to F55--><g id="link_F23_F55"><path d="M335.3747,347.5996 C351.6447,351.7396 364.21,354.89 381,359 C441.98,373.92 511.48,390.23 561.78,401.92 " fill="none" id="F23-backto-F55" style="stroke:#181818;stroke-width:1;stroke-dasharray:7.0,7.0;"/><polygon fill="#181818" points="329.56,346.12,337.2957,352.2159,334.4056,347.353,339.2685,344.4629,329.56,346.12" style="stroke:#181818;stroke-width:1;"/><text fill="#000000" font-family="sans-serif" font-size="13" lengthAdjust="spacing" textLength="61.1851" x="382" y="355.0669">&#171;extend&#187;</text></g><!--reverse link F23 to F56--><g id="link_F23_F56"><path d="M357.03,334 C403.39,334 459.79,334 513.97,334 " fill="none" id="F23-backto-F56" style="stroke:#181818;stroke-width:1;stroke-dasharray:7.0,7.0;"/><polygon fill="#181818" points="351.03,334,360.03,338,356.03,334,360.03,330,351.03,334" style="stroke:#181818;stroke-width:1;"/><text fill="#000000" font-family="sans-serif" font-size="13" lengthAdjust="spacing" textLength="61.1851" x="382" y="330.0669">&#171;extend&#187;</text></g><!--reverse link F23 to F59--><g id="link_F23_F59"><path d="M306.3464,314.3184 C339.5164,287.5084 405.95,236.91 474,205 C495.66,194.84 520.07,186.4 543.08,179.63 " fill="none" id="F23-backto-F59" style="stroke:#181818;stroke-width:1;stroke-dasharray:7.0,7.0;"/><polygon fill="#181818" points="301.68,318.09,311.1939,315.5435,305.5686,314.947,306.1651,309.3217,301.68,318.09" style="stroke:#181818;stroke-width:1;"/><text fill="#000000" font-family="sans-serif" font-size="13" lengthAdjust="spacing" textLength="61.1851" x="382" y="219.0669">&#171;extend&#187;</text></g><!--link F55 to F57--><g id="link_F55_F57"><path d="M733.13,418 C788.47,418 851.7,418 909.94,418 " fill="none" id="F55-to-F57" style="stroke:#181818;stroke-width:1;"/><polygon fill="#181818" points="915.94,418,906.94,414,910.94,418,906.94,422,915.94,418" style="stroke:#181818;stroke-width:1;"/><text fill="#000000" font-family="sans-serif" font-size="13" lengthAdjust="spacing" textLength="63.0068" x="822" y="414.0669">&#171;include&#187;</text></g><!--link F54 to F57--><g id="link_F54_F57"><path d="M737.81,484.65 C804.23,469.78 883.285,452.0811 945.405,438.1711 " fill="none" id="F54-to-F57" style="stroke:#181818;stroke-width:1;"/><polygon fill="#181818" points="951.26,436.86,941.6034,434.9233,946.3808,437.9526,943.3515,442.7299,951.26,436.86" style="stroke:#181818;stroke-width:1;"/><text fill="#000000" font-family="sans-serif" font-size="13" lengthAdjust="spacing" textLength="63.0068" x="822" y="449.0669">&#171;include&#187;</text></g><!--link F56 to F57--><g id="link_F56_F57"><path d="M719.25,351.92 C786.81,366.03 874.7367,384.4133 942.6267,398.5933 " fill="none" id="F56-to-F57" style="stroke:#181818;stroke-width:1;"/><polygon fill="#181818" points="948.5,399.82,940.5079,394.0644,943.6056,398.7977,938.8723,401.8954,948.5,399.82" style="stroke:#181818;stroke-width:1;"/><text fill="#000000" font-family="sans-serif" font-size="13" lengthAdjust="spacing" textLength="63.0068" x="822" y="370.0669">&#171;include&#187;</text></g><!--SRC=[TP71IiD048Rl-nH3BvuCHPlOIYb4GUn145eVO4mcoT3DRjpTQ4Lye3v7NypTDiLKp65XsF_xXtzc91KEd0R3PUKWPqEPOws4tR1gq60Dc3bjLkvJ4k07MLsJ6BrOCYD02w4GezGuBZXZbB1KZgJaabH61o9TYWQp3PO4znLP-oLQInbQWj73rNK4JpedMAO7rd_qrDYhZzGQjexVMeByOhzxHzbY20ZUrMZBeJvwupFl989KbjgmgseAi1-i8kCVFB7Y6hUTQz9tnS7LL7X73g4nhM9LTbpSvvAGsqzwZqPgM1iYM17wxXsSzE6R29wDBhJA_J1dKJhwfazF8xydpLiFMgX-nxSTFEt3ipyR8YZuk1hq9pdrd_KioJY2DTMDFGJPxmf9sx3ELstKVdSq96FnBKGuBLnUBi9HHBeybVx1F8h2lk4MvdFQEbBvOj4J9aF2T418naEEU4X8XeJPkI123nyzhFcWiCfacrFm-A13IlA_yWC0]--></g></svg>