<svg xmlns="http://www.w3.org/2000/svg" xmlns:xlink="http://www.w3.org/1999/xlink" contentStyleType="text/css" height="395px" preserveAspectRatio="none" style="width:2102px;height:395px;background:#FFFFFF;" version="1.1" viewBox="0 0 2102 395" width="2102px" zoomAndPan="magnify"><defs/><g><!--cluster Chess--><g id="cluster_Chess"><path d="M79.5,6 L126.9023,6 A3.75,3.75 0 0 1 129.4023,8.5 L136.4023,28.2969 L2092.5,28.2969 A2.5,2.5 0 0 1 2095,30.7969 L2095,385.5 A2.5,2.5 0 0 1 2092.5,388 L79.5,388 A2.5,2.5 0 0 1 77,385.5 L77,8.5 A2.5,2.5 0 0 1 79.5,6 " fill="none" style="stroke:#000000;stroke-width:1.5;"/><line style="stroke:#000000;stroke-width:1.5;" x1="77" x2="136.4023" y1="28.2969" y2="28.2969"/><text fill="#000000" font-family="sans-serif" font-size="14" font-weight="bold" lengthAdjust="spacing" textLength="46.4023" x="81" y="20.9951">Chess</text></g><g id="elem_F25"><ellipse cx="823.1395" cy="205.2279" fill="#F1F1F1" rx="104.1395" ry="23.2279" style="stroke:#181818;stroke-width:0.5;"/><text fill="#000000" font-family="sans-serif" font-size="14" lengthAdjust="spacing" textLength="173.1406" x="736.5691" y="208.0746">F25. Interface graphique</text></g><g id="elem_F12"><ellipse cx="822.8773" cy="66.5755" fill="#F1F1F1" rx="115.8773" ry="25.5755" style="stroke:#181818;stroke-width:0.5;"/><text fill="#000000" font-family="sans-serif" font-size="14" lengthAdjust="spacing" textLength="198.5361" x="723.6093" y="69.4221">F12. Biblioth&#232;que graphique</text></g><g id="elem_F46"><ellipse cx="1112.9952" cy="338.699" fill="#F1F1F1" rx="98.9952" ry="22.199" style="stroke:#181818;stroke-width:0.5;"/><text fill="#000000" font-family="sans-serif" font-size="14" lengthAdjust="spacing" textLength="161.8408" x="1032.0748" y="341.5457">F46. Fonctions de base</text></g><g id="elem_F47"><ellipse cx="166.9893" cy="338.5979" fill="#F1F1F1" rx="73.4893" ry="17.0979" style="stroke:#181818;stroke-width:0.5;"/><text fill="#000000" font-family="sans-serif" font-size="14" lengthAdjust="spacing" textLength="102.1016" x="112.9385" y="342.3454">F47. Menu File</text></g><g id="elem_F48"><ellipse cx="355.8349" cy="338.467" fill="#F1F1F1" rx="80.3349" ry="18.467" style="stroke:#181818;stroke-width:0.5;"/><text fill="#000000" font-family="sans-serif" font-size="14" lengthAdjust="spacing" textLength="119.335" x="294.6269" y="341.8103">F48. Menu Game</text></g><g id="elem_F49"><ellipse cx="552.2161" cy="338.4432" fill="#F1F1F1" rx="80.2161" ry="18.4432" style="stroke:#181818;stroke-width:0.5;"/><text fill="#000000" font-family="sans-serif" font-size="14" lengthAdjust="spacing" textLength="119.0479" x="491.1072" y="341.7997">F49. Menu About</text></g><g id="elem_F50"><ellipse cx="1389.8502" cy="338.37" fill="#F1F1F1" rx="142.3502" ry="30.87" style="stroke:#181818;stroke-width:0.5;"/><text fill="#000000" font-family="sans-serif" font-size="14" lengthAdjust="spacing" textLength="254.5225" x="1262.589" y="341.2167">F50. Affichage d'une partie en cours</text></g><g id="elem_F51"><ellipse cx="1692.2387" cy="338.3477" fill="#F1F1F1" rx="124.7387" ry="27.3477" style="stroke:#181818;stroke-width:0.5;"/><text fill="#000000" font-family="sans-serif" font-size="14" lengthAdjust="spacing" textLength="217.4375" x="1583.52" y="341.1944">F51. Affichage des coups jou&#233;s</text></g><g id="elem_F52"><ellipse cx="823.0107" cy="338.6021" fill="#F1F1F1" rx="156.0107" ry="33.6021" style="stroke:#181818;stroke-width:0.5;"/><text fill="#000000" font-family="sans-serif" font-size="14" lengthAdjust="spacing" textLength="282.9736" x="681.5239" y="341.4488">F52. Configuration d'une nouvelle partie</text></g><g id="elem_F33"><ellipse cx="1964.7713" cy="338.5543" fill="#F1F1F1" rx="113.2713" ry="25.0543" style="stroke:#181818;stroke-width:0.5;"/><text fill="#000000" font-family="sans-serif" font-size="14" lengthAdjust="spacing" textLength="192.9375" x="1868.3026" y="341.4009">F33. Afficher des messages</text></g><!--entity User--><g id="elem_User"><ellipse cx="33" cy="44.5" fill="#F1F1F1" rx="16" ry="16" style="stroke:#181818;stroke-width:0.5;"/><path d="M33,64.5 C37,64.5 40,64.5 44,60.5 C52,60.5 60,68.5 60,76.5 L60,80.5 C60,84.5 56,88.5 52,88.5 L14,88.5 C10,88.5 6,84.5 6,80.5 L6,76.5 C6,68.5 14,60.5 22,60.5 C26,64.5 29,64.5 33,64.5 " fill="#F1F1F1" style="stroke:#181818;stroke-width:0.5;"/><text fill="#000000" font-family="sans-serif" font-size="14" lengthAdjust="spacing" textLength="31.9102" x="17.0449" y="101.9951">User</text></g><!--link User to F25--><g id="link_User_F25"><path d="M60.67,95.21 C65.76,99.06 71.29,102.53 77,105 C187.82,152.93 227.24,119.67 347,135 C484.91,152.65 638.8492,175.6216 733.7792,190.1616 " fill="none" id="User-to-F25" style="stroke:#181818;stroke-width:1;"/><polygon fill="#181818" points="739.71,191.07,731.4193,185.7535,734.7676,190.313,730.2081,193.6613,739.71,191.07" style="stroke:#181818;stroke-width:1;"/></g><!--link User to F47--><g id="link_User_F47"><path d="M51.63,105.04 C81.33,164.89 135.5121,274.0658 156.3921,316.1258 " fill="none" id="User-to-F47" style="stroke:#181818;stroke-width:1;"/><polygon fill="#181818" points="159.06,321.5,158.6409,311.6601,156.8367,317.0215,151.4753,315.2173,159.06,321.5" style="stroke:#181818;stroke-width:1;"/></g><!--link User to F48--><g id="link_User_F48"><path d="M60.69,96.99 C71.72,108.77 84.49,122.5 96,135 C152.88,196.82 155.45,225.05 223,275 C250.8,295.55 280.8478,309.6602 308.2278,320.4502 " fill="none" id="User-to-F48" style="stroke:#181818;stroke-width:1;"/><polygon fill="#181818" points="313.81,322.65,306.9033,315.6288,309.1582,320.8168,303.9702,323.0717,313.81,322.65" style="stroke:#181818;stroke-width:1;"/></g><!--link User to F49--><g id="link_User_F49"><path d="M60.82,92.46 C66.07,96.8 71.6,101.16 77,105 C98.42,120.25 106.52,119.83 128,135 C207.12,190.86 207.46,233.56 295,275 C360,305.77 384.38,286.97 454,305 C472.91,309.9 487.8161,314.5689 505.2061,320.5489 " fill="none" id="User-to-F49" style="stroke:#181818;stroke-width:1;"/><polygon fill="#181818" points="510.88,322.5,503.6699,315.7907,506.1517,320.8741,501.0684,323.3559,510.88,322.5" style="stroke:#181818;stroke-width:1;"/></g><!--link User to F52--><g id="link_User_F52"><path d="M60.71,93.76 C65.88,97.88 71.42,101.81 77,105 C112.52,125.29 127.41,116.72 164,135 C263.35,184.64 266.7,236.82 371,275 C488.12,317.87 526.62,286.81 650,305 C669.8,307.92 684.8964,310.3987 705.1764,314.0787 " fill="none" id="User-to-F52" style="stroke:#181818;stroke-width:1;"/><polygon fill="#181818" points="711.08,315.15,702.9388,309.6074,706.1603,314.2573,701.5104,317.4788,711.08,315.15" style="stroke:#181818;stroke-width:1;"/></g><!--reverse link F25 to F50--><g id="link_F25_F50"><path d="M898.3748,223.4759 C999.2848,246.8859 1180.82,288.99 1294.59,315.37 " fill="none" id="F25-backto-F50" style="stroke:#181818;stroke-width:1;stroke-dasharray:7.0,7.0;"/><polygon fill="#181818" points="892.53,222.12,900.3932,228.0504,897.4007,223.2499,902.2011,220.2574,892.53,222.12" style="stroke:#181818;stroke-width:1;"/><text fill="#000000" font-family="sans-serif" font-size="13" lengthAdjust="spacing" textLength="61.1851" x="1107" y="271.0669">&#171;extend&#187;</text></g><!--reverse link F25 to F51--><g id="link_F25_F51"><path d="M920.9031,216.5046 C1059.2631,231.9246 1323.02,263.66 1550,305 C1569.78,308.6 1590.97,313.1 1610.79,317.59 " fill="none" id="F25-backto-F51" style="stroke:#181818;stroke-width:1;stroke-dasharray:7.0,7.0;"/><polygon fill="#181818" points="914.94,215.84,923.4416,220.8123,919.9092,216.3938,924.3277,212.8615,914.94,215.84" style="stroke:#181818;stroke-width:1;"/><text fill="#000000" font-family="sans-serif" font-size="13" lengthAdjust="spacing" textLength="61.1851" x="1352" y="271.0669">&#171;extend&#187;</text></g><!--reverse link F25 to F52--><g id="link_F25_F52"><path d="M823,234.01 C823,254.99 823,280.86 823,304.81 " fill="none" id="F25-backto-F52" style="stroke:#181818;stroke-width:1;stroke-dasharray:7.0,7.0;"/><polygon fill="#181818" points="823,228.01,819,237.01,823,233.01,827,237.01,823,228.01" style="stroke:#181818;stroke-width:1;"/><text fill="#000000" font-family="sans-serif" font-size="13" lengthAdjust="spacing" textLength="61.1851" x="824" y="271.0669">&#171;extend&#187;</text></g><!--reverse link F25 to F47--><g id="link_F25_F47"><path d="M726.2658,216.9799 C613.6058,230.9799 422.22,258.99 258,305 C239.42,310.2 219.17,317.29 202.5,323.52 " fill="none" id="F25-backto-F47" style="stroke:#181818;stroke-width:1;stroke-dasharray:7.0,7.0;"/><polygon fill="#181818" points="732.22,216.24,722.7954,213.3804,727.2582,216.8566,723.782,221.3193,732.22,216.24" style="stroke:#181818;stroke-width:1;"/><text fill="#000000" font-family="sans-serif" font-size="13" lengthAdjust="spacing" textLength="61.1851" x="458" y="271.0669">&#171;extend&#187;</text></g><!--reverse link F25 to F49--><g id="link_F25_F49"><path d="M776.1514,228.7383 C722.1714,254.9183 634.32,297.55 584.92,321.52 " fill="none" id="F25-backto-F49" style="stroke:#181818;stroke-width:1;stroke-dasharray:7.0,7.0;"/><polygon fill="#181818" points="781.55,226.12,771.7066,226.4484,777.0512,228.3019,775.1977,233.6465,781.55,226.12" style="stroke:#181818;stroke-width:1;"/><text fill="#000000" font-family="sans-serif" font-size="13" lengthAdjust="spacing" textLength="61.1851" x="712" y="271.0669">&#171;extend&#187;</text></g><!--reverse link F25 to F48--><g id="link_F25_F48"><path d="M748.9428,223.8794 C708.5028,233.7994 662.13,245.48 616,258 C544.06,277.53 526.2,282.93 455,305 C436.86,310.62 416.94,317.1 399.76,322.79 " fill="none" id="F25-backto-F48" style="stroke:#181818;stroke-width:1;stroke-dasharray:7.0,7.0;"/><polygon fill="#181818" points="754.77,222.45,745.0762,220.7093,749.914,223.6412,746.9821,228.479,754.77,222.45" style="stroke:#181818;stroke-width:1;"/><text fill="#000000" font-family="sans-serif" font-size="13" lengthAdjust="spacing" textLength="61.1851" x="617" y="271.0669">&#171;extend&#187;</text></g><!--reverse link F25 to F33--><g id="link_F25_F33"><path d="M930.1822,210.7954 C1113.0522,220.1154 1504.23,245.54 1834,305 C1854.29,308.66 1876.11,313.64 1896.02,318.61 " fill="none" id="F25-backto-F33" style="stroke:#181818;stroke-width:1;stroke-dasharray:7.0,7.0;"/><polygon fill="#181818" points="924.19,210.49,932.9747,214.9429,929.1835,210.7445,933.3819,206.9533,924.19,210.49" style="stroke:#181818;stroke-width:1;"/><text fill="#000000" font-family="sans-serif" font-size="13" lengthAdjust="spacing" textLength="61.1851" x="1643" y="271.0669">&#171;extend&#187;</text></g><!--link F12 to F25--><g id="link_F12_F25"><path d="M823,92.22 C823,117.73 823,151.15 823,175.72 " fill="none" id="F12-to-F25" style="stroke:#181818;stroke-width:1;"/><polygon fill="#181818" points="823,181.72,827,172.72,823,176.72,819,172.72,823,181.72" style="stroke:#181818;stroke-width:1;"/><text fill="#000000" font-family="sans-serif" font-size="13" lengthAdjust="spacing" textLength="63.0068" x="824" y="148.0669">&#171;include&#187;</text></g><!--link F25 to F46--><g id="link_F25_F46"><path d="M867.04,225.97 C922.34,251.05 1011.0654,291.2825 1065.4354,315.9325 " fill="none" id="F25-to-F46" style="stroke:#181818;stroke-width:1;"/><polygon fill="#181818" points="1070.9,318.41,1064.3548,311.0507,1066.3462,316.3454,1061.0514,318.3368,1070.9,318.41" style="stroke:#181818;stroke-width:1;"/><text fill="#000000" font-family="sans-serif" font-size="13" lengthAdjust="spacing" textLength="63.0068" x="969" y="271.0669">&#171;include&#187;</text></g><!--SRC=[TP9DJiCm48NtESMe6rQDcf-s2QegbKf5B5WX3k0wayOqiOD_-17YFd2ENWmx9DH5okufttjwdfce8-CjaQG1GhMG3_gzHY2lg4I3mUHHePm0KU14q19w90U4ROLAVGH68IKAORABvo7SSOso91JX84bRiMU3NT92pnd58TomVSs4havVrlFV7SMUErs4i1ESQYQuWW9XRx__-jA5xrk6S8_Sm8xL0r_wFElvBMa6dlayx_bcBupk3RbdcCz2s9GbevMRlxWo7C5kJJC4v425aUetDP_vgUWYXSevMmLFmfo-Xq3a1-nsjeANx60aSKFtLLoO5wpheRDF-fjAag4APTVKs1FPrhubIOBWCmZS5M4wNRkR_6cxgRFEF9sVjUqAR0XMOUXcX6jOhV1D8o_MQmz4Oo0U0Ubo3EHZ81i1IN89x8EZs3tU_O4TOfpMfi0-r95qSKb-0000]--></g></svg>