<svg xmlns="http://www.w3.org/2000/svg" xmlns:xlink="http://www.w3.org/1999/xlink" contentStyleType="text/css" height="528px" preserveAspectRatio="none" style="width:2168px;height:528px;background:#FFFFFF;" version="1.1" viewBox="0 0 2168 528" width="2168px" zoomAndPan="magnify"><defs/><g><!--cluster Chess--><g id="cluster_Chess"><path d="M79.5,129.5 L126.9023,129.5 A3.75,3.75 0 0 1 129.4023,132 L136.4023,151.7969 L2158.5,151.7969 A2.5,2.5 0 0 1 2161,154.2969 L2161,519 A2.5,2.5 0 0 1 2158.5,521.5 L79.5,521.5 A2.5,2.5 0 0 1 77,519 L77,132 A2.5,2.5 0 0 1 79.5,129.5 " fill="none" style="stroke:#000000;stroke-width:1.5;"/><line style="stroke:#000000;stroke-width:1.5;" x1="77" x2="136.4023" y1="151.7969" y2="151.7969"/><text fill="#000000" font-family="sans-serif" font-size="14" font-weight="bold" lengthAdjust="spacing" textLength="46.4023" x="81" y="144.4951">Chess</text></g><g id="elem_F35"><ellipse cx="1073.8608" cy="335.3722" fill="#F1F1F1" rx="127.3608" ry="27.8722" style="stroke:#181818;stroke-width:0.5;"/><text fill="#000000" font-family="sans-serif" font-size="14" lengthAdjust="spacing" textLength="222.9951" x="962.3632" y="338.2188">F35. Sauvegarde de l'historique</text></g><g id="elem_F40"><ellipse cx="802.1285" cy="191.9257" fill="#F1F1F1" rx="125.1285" ry="27.4257" style="stroke:#181818;stroke-width:0.5;"/><text fill="#000000" font-family="sans-serif" font-size="14" lengthAdjust="spacing" textLength="218.2646" x="692.9962" y="194.7724">F40. Format de fichier simplifi&#233;</text></g><g id="elem_F41"><ellipse cx="1073.9982" cy="192.1996" fill="#F1F1F1" rx="111.4982" ry="24.6996" style="stroke:#181818;stroke-width:0.5;"/><text fill="#000000" font-family="sans-serif" font-size="14" lengthAdjust="spacing" textLength="189.1162" x="979.4401" y="195.0463">F41. Format de l'historique</text></g><g id="elem_F42"><ellipse cx="1337.9363" cy="191.7873" fill="#F1F1F1" rx="116.9363" ry="25.7873" style="stroke:#181818;stroke-width:0.5;"/><text fill="#000000" font-family="sans-serif" font-size="14" lengthAdjust="spacing" textLength="200.8057" x="1237.5335" y="194.6339">F42. Fichier de configuration</text></g><g id="elem_F34"><ellipse cx="243.9871" cy="472.9974" fill="#F1F1F1" rx="150.4871" ry="32.4974" style="stroke:#181818;stroke-width:0.5;"/><text fill="#000000" font-family="sans-serif" font-size="14" lengthAdjust="spacing" textLength="271.4961" x="108.239" y="475.8441">F34. Quitter et sauvegarder une partie</text></g><g id="elem_F36"><ellipse cx="1356.751" cy="472.9502" fill="#F1F1F1" rx="125.251" ry="27.4502" style="stroke:#181818;stroke-width:0.5;"/><text fill="#000000" font-family="sans-serif" font-size="14" lengthAdjust="spacing" textLength="218.5244" x="1247.4888" y="475.7969">F36. Naviguer dans l'historique</text></g><g id="elem_F37"><ellipse cx="1073.9964" cy="472.8993" fill="#F1F1F1" rx="122.4964" ry="26.8993" style="stroke:#181818;stroke-width:0.5;"/><text fill="#000000" font-family="sans-serif" font-size="14" lengthAdjust="spacing" textLength="212.6729" x="967.66" y="475.746">F37. Recommencer une partie</text></g><g id="elem_F39"><ellipse cx="816.0547" cy="473.0109" fill="#F1F1F1" rx="100.5547" ry="22.5109" style="stroke:#181818;stroke-width:0.5;"/><text fill="#000000" font-family="sans-serif" font-size="14" lengthAdjust="spacing" textLength="165.2793" x="733.415" y="475.8576">F39. Rejouer une partie</text></g><g id="elem_F51"><ellipse cx="1642.2387" cy="472.8477" fill="#F1F1F1" rx="124.7387" ry="27.3477" style="stroke:#181818;stroke-width:0.5;"/><text fill="#000000" font-family="sans-serif" font-size="14" lengthAdjust="spacing" textLength="217.4375" x="1533.52" y="475.6944">F51. Affichage des coups jou&#233;s</text></g><g id="elem_F52"><ellipse cx="554.9379" cy="472.9876" fill="#F1F1F1" rx="125.4379" ry="27.4876" style="stroke:#181818;stroke-width:0.5;"/><text fill="#000000" font-family="sans-serif" font-size="14" lengthAdjust="spacing" textLength="218.9209" x="445.4775" y="475.8343">F52. Configuration d'une partie</text></g><g id="elem_F48"><ellipse cx="1881.8349" cy="472.967" fill="#F1F1F1" rx="80.3349" ry="18.467" style="stroke:#181818;stroke-width:0.5;"/><text fill="#000000" font-family="sans-serif" font-size="14" lengthAdjust="spacing" textLength="119.335" x="1820.6269" y="476.3103">F48. Menu Game</text></g><g id="elem_F47"><ellipse cx="2070.9893" cy="473.0979" fill="#F1F1F1" rx="73.4893" ry="17.0979" style="stroke:#181818;stroke-width:0.5;"/><text fill="#000000" font-family="sans-serif" font-size="14" lengthAdjust="spacing" textLength="102.1016" x="2016.9385" y="476.8454">F47. Menu File</text></g><g id="elem_F25"><ellipse cx="1972.1395" cy="335.7279" fill="#F1F1F1" rx="104.1395" ry="23.2279" style="stroke:#181818;stroke-width:0.5;"/><text fill="#000000" font-family="sans-serif" font-size="14" lengthAdjust="spacing" textLength="173.1406" x="1885.5691" y="338.5746">F25. Interface graphique</text></g><!--entity User--><g id="elem_User"><ellipse cx="33" cy="170" fill="#F1F1F1" rx="16" ry="16" style="stroke:#181818;stroke-width:0.5;"/><path d="M33,190 C37,190 40,190 44,186 C52,186 60,194 60,202 L60,206 C60,210 56,214 52,214 L14,214 C10,214 6,210 6,206 L6,202 C6,194 14,186 22,186 C26,190 29,190 33,190 " fill="#F1F1F1" style="stroke:#181818;stroke-width:0.5;"/><text fill="#000000" font-family="sans-serif" font-size="14" lengthAdjust="spacing" textLength="31.9102" x="17.0449" y="227.4951">User</text></g><!--entity FS--><g id="elem_FS"><ellipse cx="1074.0508" cy="22" fill="#F1F1F1" rx="16" ry="16" style="stroke:#181818;stroke-width:0.5;"/><path d="M1074.0508,42 C1078.0508,42 1081.0508,42 1085.0508,38 C1093.0508,38 1101.0508,46 1101.0508,54 L1101.0508,58 C1101.0508,62 1097.0508,66 1093.0508,66 L1055.0508,66 C1051.0508,66 1047.0508,62 1047.0508,58 L1047.0508,54 C1047.0508,46 1055.0508,38 1063.0508,38 C1067.0508,42 1070.0508,42 1074.0508,42 " fill="#F1F1F1" style="stroke:#181818;stroke-width:0.5;"/><text fill="#000000" font-family="sans-serif" font-size="14" lengthAdjust="spacing" textLength="81.1016" x="1033.5" y="79.4951">File System</text></g><!--link User to F35--><g id="link_User_F35"><path d="M60.61,220.85 C65.71,224.68 71.25,228.11 77,230.5 C152.15,261.74 361.02,252.43 442,260.5 C626.13,278.84 833.9168,304.1122 959.6968,319.9122 " fill="none" id="User-to-F35" style="stroke:#181818;stroke-width:1;"/><polygon fill="#181818" points="965.65,320.66,957.2187,315.5695,960.689,320.0368,956.2216,323.5071,965.65,320.66" style="stroke:#181818;stroke-width:1;"/></g><!--link User to F34--><g id="link_User_F34"><path d="M51.8,230.9 C75.43,276.39 119,353.65 169,410.5 C178.79,421.63 186.0579,428.5808 197.4879,437.8908 " fill="none" id="User-to-F34" style="stroke:#181818;stroke-width:1;"/><polygon fill="#181818" points="202.14,441.68,197.688,432.8948,198.2633,438.5223,192.6357,439.0975,202.14,441.68" style="stroke:#181818;stroke-width:1;"/></g><!--link User to F36--><g id="link_User_F36"><path d="M60.91,220.19 C65.98,224.09 71.43,227.72 77,230.5 C132.01,257.91 153.29,242.31 212,260.5 C382.67,313.39 410.43,372.38 585,410.5 C858.43,470.21 936.57,403.6 1214,440.5 C1234.41,443.22 1250.3564,446.0978 1270.6364,450.4978 " fill="none" id="User-to-F36" style="stroke:#181818;stroke-width:1;"/><polygon fill="#181818" points="1276.5,451.77,1268.5527,445.9527,1271.6137,450.7099,1266.8565,453.7708,1276.5,451.77" style="stroke:#181818;stroke-width:1;"/></g><!--link User to F37--><g id="link_User_F37"><path d="M60.66,219.36 C65.84,223.46 71.39,227.37 77,230.5 C114.93,251.66 130.37,242.73 170,260.5 C207.63,277.38 215.57,284.81 250,307.5 C314.5,350.01 317.3,384.4 390,410.5 C503.95,451.41 814.08,423.82 934,440.5 C954.36,443.33 970.274,446.3035 990.444,450.8035 " fill="none" id="User-to-F37" style="stroke:#181818;stroke-width:1;"/><polygon fill="#181818" points="996.3,452.11,988.387,446.2462,991.42,451.0212,986.645,454.0543,996.3,452.11" style="stroke:#181818;stroke-width:1;"/></g><!--link User to F39--><g id="link_User_F39"><path d="M60.72,218.1 C65.97,222.43 71.54,226.75 77,230.5 C99.94,246.28 108.45,245.65 132,260.5 C162.15,279.52 168.96,285.48 197,307.5 C252.55,351.11 252.73,383.52 318,410.5 C396.28,442.86 614.51,426.18 698,440.5 C717.96,443.92 733.6646,447.5798 752.7646,452.8298 " fill="none" id="User-to-F39" style="stroke:#181818;stroke-width:1;"/><polygon fill="#181818" points="758.55,454.42,750.932,448.1777,753.7288,453.0948,748.8117,455.8916,758.55,454.42" style="stroke:#181818;stroke-width:1;"/></g><!--link User to F52--><g id="link_User_F52"><path d="M60.7,221.64 C117.51,280.35 242.13,408.97 245,410.5 C311.61,445.86 338.05,425.72 412,440.5 C430.82,444.26 445.1185,447.2583 464.1885,451.4283 " fill="none" id="User-to-F52" style="stroke:#181818;stroke-width:1;"/><polygon fill="#181818" points="470.05,452.71,462.1122,446.8797,465.1654,451.6419,460.4033,454.6951,470.05,452.71" style="stroke:#181818;stroke-width:1;"/></g><!--link FS to F40--><g id="link_FS_F40"><path d="M1033.28,66.86 C983.63,93.51 905.2267,135.5927 853.2967,163.4627 " fill="none" id="FS-to-F40" style="stroke:#181818;stroke-width:1;"/><polygon fill="#181818" points="848.01,166.3,857.8317,165.5685,852.4156,163.9356,854.0486,158.5195,848.01,166.3" style="stroke:#181818;stroke-width:1;"/></g><!--link FS to F41--><g id="link_FS_F41"><path d="M1074,82.6 C1074,109.3 1074,138.33 1074,161.24 " fill="none" id="FS-to-F41" style="stroke:#181818;stroke-width:1;"/><polygon fill="#181818" points="1074,167.24,1078,158.24,1074,162.24,1070,158.24,1074,167.24" style="stroke:#181818;stroke-width:1;"/></g><!--link FS to F42--><g id="link_FS_F42"><path d="M1114.67,67.49 C1163.7,94.61 1240.4593,137.0564 1290.2793,164.6064 " fill="none" id="FS-to-F42" style="stroke:#181818;stroke-width:1;"/><polygon fill="#181818" points="1295.53,167.51,1289.5897,159.6542,1291.1545,165.0904,1285.7183,166.6551,1295.53,167.51" style="stroke:#181818;stroke-width:1;"/></g><!--link F25 to F47--><g id="link_F25_F47"><path d="M1987.91,358.27 C2007.91,385.65 2038.2415,427.1545 2055.9215,451.3645 " fill="none" id="F25-to-F47" style="stroke:#181818;stroke-width:1;"/><polygon fill="#181818" points="2059.46,456.21,2057.3825,446.5827,2056.5112,452.1721,2050.9219,451.3008,2059.46,456.21" style="stroke:#181818;stroke-width:1;"/><text fill="#000000" font-family="sans-serif" font-size="13" lengthAdjust="spacing" textLength="63.0068" x="2025" y="406.5669">&#171;include&#187;</text></g><!--link F25 to F48--><g id="link_F25_F48"><path d="M1957.34,358.57 C1939.51,385.42 1913.1002,425.1824 1896.8302,449.6724 " fill="none" id="F25-to-F48" style="stroke:#181818;stroke-width:1;"/><polygon fill="#181818" points="1893.51,454.67,1901.822,449.387,1896.2768,450.5053,1895.1585,444.9601,1893.51,454.67" style="stroke:#181818;stroke-width:1;"/><text fill="#000000" font-family="sans-serif" font-size="13" lengthAdjust="spacing" textLength="63.0068" x="1933" y="406.5669">&#171;include&#187;</text></g><!--link F41 to F35--><g id="link_F41_F35"><path d="M1074,216.68 C1074,241.7 1074,275.09 1074,301.35 " fill="none" id="F41-to-F35" style="stroke:#181818;stroke-width:1;"/><polygon fill="#181818" points="1074,307.35,1078,298.35,1074,302.35,1070,298.35,1074,307.35" style="stroke:#181818;stroke-width:1;"/><text fill="#000000" font-family="sans-serif" font-size="13" lengthAdjust="spacing" textLength="63.0068" x="1075" y="273.5669">&#171;include&#187;</text></g><!--link F42 to F35--><g id="link_F42_F35"><path d="M1294.7,216.21 C1246.87,241.85 1175.3986,280.1561 1126.1686,306.5361 " fill="none" id="F42-to-F35" style="stroke:#181818;stroke-width:1;"/><polygon fill="#181818" points="1120.88,309.37,1130.7021,308.6449,1125.2871,307.0084,1126.9236,301.5934,1120.88,309.37" style="stroke:#181818;stroke-width:1;"/><text fill="#000000" font-family="sans-serif" font-size="13" lengthAdjust="spacing" textLength="63.0068" x="1207" y="273.5669">&#171;include&#187;</text></g><!--link F40 to F35--><g id="link_F40_F35"><path d="M849.07,217.49 C898.48,243.19 970.4772,280.6408 1020.3572,306.5908 " fill="none" id="F40-to-F35" style="stroke:#181818;stroke-width:1;"/><polygon fill="#181818" points="1025.68,309.36,1019.542,301.6578,1021.2444,307.0524,1015.8498,308.7548,1025.68,309.36" style="stroke:#181818;stroke-width:1;"/><text fill="#000000" font-family="sans-serif" font-size="13" lengthAdjust="spacing" textLength="63.0068" x="963" y="273.5669">&#171;include&#187;</text></g><!--reverse link F35 to F34--><g id="link_F35_F34"><path d="M964.4259,352.697 C833.9759,372.197 609.06,406.55 412,440.5 C393.43,443.7 373.74,447.25 354.62,450.78 " fill="none" id="F35-backto-F34" style="stroke:#181818;stroke-width:1;stroke-dasharray:7.0,7.0;"/><polygon fill="#181818" points="970.36,351.81,960.8675,349.1845,965.4149,352.5492,962.0503,357.0966,970.36,351.81" style="stroke:#181818;stroke-width:1;"/><text fill="#000000" font-family="sans-serif" font-size="13" lengthAdjust="spacing" textLength="61.1851" x="685" y="406.5669">&#171;extend&#187;</text></g><!--reverse link F35 to F36--><g id="link_F35_F36"><path d="M1130.9919,363.7905 C1182.3219,388.3605 1255.21,423.26 1306.25,447.7 " fill="none" id="F35-backto-F36" style="stroke:#181818;stroke-width:1;stroke-dasharray:7.0,7.0;"/><polygon fill="#181818" points="1125.58,361.2,1131.9709,368.6938,1130.09,363.3588,1135.4249,361.4778,1125.58,361.2" style="stroke:#181818;stroke-width:1;"/><text fill="#000000" font-family="sans-serif" font-size="13" lengthAdjust="spacing" textLength="61.1851" x="1224" y="406.5669">&#171;extend&#187;</text></g><!--reverse link F35 to F37--><g id="link_F35_F37"><path d="M1074,369.59 C1074,393.54 1074,422.23 1074,445.87 " fill="none" id="F35-backto-F37" style="stroke:#181818;stroke-width:1;stroke-dasharray:7.0,7.0;"/><polygon fill="#181818" points="1074,363.59,1070,372.59,1074,368.59,1078,372.59,1074,363.59" style="stroke:#181818;stroke-width:1;"/><text fill="#000000" font-family="sans-serif" font-size="13" lengthAdjust="spacing" textLength="61.1851" x="1075" y="406.5669">&#171;extend&#187;</text></g><!--reverse link F35 to F39--><g id="link_F35_F39"><path d="M1021.0682,364.3002 C971.4182,390.3802 899.89,427.94 854.11,451.98 " fill="none" id="F35-backto-F39" style="stroke:#181818;stroke-width:1;stroke-dasharray:7.0,7.0;"/><polygon fill="#181818" points="1026.38,361.51,1016.5522,362.154,1021.9535,363.8351,1020.2724,369.2364,1026.38,361.51" style="stroke:#181818;stroke-width:1;"/><text fill="#000000" font-family="sans-serif" font-size="13" lengthAdjust="spacing" textLength="61.1851" x="961" y="406.5669">&#171;extend&#187;</text></g><!--reverse link F35 to F51--><g id="link_F35_F51"><path d="M1163.9563,357.9619 C1271.8863,383.7019 1452.1,426.7 1559.33,452.28 " fill="none" id="F35-backto-F51" style="stroke:#181818;stroke-width:1;stroke-dasharray:7.0,7.0;"/><polygon fill="#181818" points="1158.12,356.57,1165.9466,362.5487,1162.9836,357.7299,1167.8024,354.767,1158.12,356.57" style="stroke:#181818;stroke-width:1;"/><text fill="#000000" font-family="sans-serif" font-size="13" lengthAdjust="spacing" textLength="61.1851" x="1376" y="406.5669">&#171;extend&#187;</text></g><!--reverse link F35 to F52--><g id="link_F35_F52"><path d="M988.2347,358.8861 C890.2847,384.4661 731.18,426 633.77,451.43 " fill="none" id="F35-backto-F52" style="stroke:#181818;stroke-width:1;stroke-dasharray:7.0,7.0;"/><polygon fill="#181818" points="994.04,357.37,984.3213,355.7739,989.2022,358.6334,986.3428,363.5143,994.04,357.37" style="stroke:#181818;stroke-width:1;"/><text fill="#000000" font-family="sans-serif" font-size="13" lengthAdjust="spacing" textLength="61.1851" x="846" y="406.5669">&#171;extend&#187;</text></g><!--reverse link F35 to F48--><g id="link_F35_F48"><path d="M1195.4174,348.0945 C1336.8274,362.8945 1577.1,392.44 1784,440.5 C1802.8,444.87 1823.18,451.16 1840.46,456.97 " fill="none" id="F35-backto-F48" style="stroke:#181818;stroke-width:1;stroke-dasharray:7.0,7.0;"/><polygon fill="#181818" points="1189.45,347.47,1197.9847,352.3851,1194.4228,347.9905,1198.8175,344.4286,1189.45,347.47" style="stroke:#181818;stroke-width:1;"/><text fill="#000000" font-family="sans-serif" font-size="13" lengthAdjust="spacing" textLength="61.1851" x="1631" y="406.5669">&#171;extend&#187;</text></g><!--reverse link F35 to F47--><g id="link_F35_F47"><path d="M1205.7645,340.4477 C1382.5245,348.0477 1707.33,370.86 1980,440.5 C1998.47,445.22 2018.53,451.98 2035.11,458.03 " fill="none" id="F35-backto-F47" style="stroke:#181818;stroke-width:1;stroke-dasharray:7.0,7.0;"/><polygon fill="#181818" points="1199.77,340.19,1208.5899,344.5729,1204.7654,340.4048,1208.9335,336.5803,1199.77,340.19" style="stroke:#181818;stroke-width:1;"/><text fill="#000000" font-family="sans-serif" font-size="13" lengthAdjust="spacing" textLength="61.1851" x="1835" y="406.5669">&#171;extend&#187;</text></g><!--SRC=[TP9DRjim48NtFCN0cwmYM8fesOLXe0YW88i6Q8KUWA16DXkBKlcJ9YXwe9mZ5-lGabELiGGjXdhpwM4UnpugtGiZMX3ITQPoBqS4yGjjro9RVBTe5Y0iX88jIaLYzM8TjgUlPSLw8H_57k7sWDR-Pa2FjoY5HLYKDpo1IlWdt0jJ8z1xl3eeIpxgfyVX5pSyWl9b0cLdMk42q2XvK6Z0ghO_gaQzlGvOleonT8fzzCdJ6CW86FzEXEnqe_RU2ASwFI9PF4-Um5Uld2C47TZtqGnuZK0vEdKUAu_PLG8FueaiWf_Gzb8MgnWg4lY6icjRrFAIIn43cm3ywFobvatKp2copqr8EDnWZPP2yBq5mjzUxG3nE3PEiTrEiuBwAdRYSN3vEe4lg3tSYVPy7-kufnXxmfQDFV5u6ItKlQRu6o4HzaRqXt_fPPpzOIniAbnVxy9YdUlJTKmEg-cXc1usamDDmSfgg6dTocgeqg4Asy78SzGB-0JRhTBow6lSxIRAEbRoT3JZ7vHiLbdEA2nysYP96F4auRD3NGVcNLZD2SMSi9aHU3edP3F2EFu5uN_plm00]--></g></svg>